# xmcd
#
# Track frame offsets:
#	150
#	18345
#	31780
#	48940
#	66932
#	86750
#	104020
#	123817
#	141982
#	153701
#
# Disc length: 2372 seconds
#
# Revision: 0
# Processed by: cddbd v1.5.2PL0 Copyright (c) Steve Scherf et al.
# Submitted via: SynApp - FreeCDDB Version: 2.4
#
DISCID=8409420a
DTITLE=Albert King - Lovejoy
DYEAR=1971
DGENRE=Blues
TTITLE0=01 - Honky Tonk Woman
TTITLE1=02 - Bay Area Blues
TTITLE2=03 - Corina Corina
TTITLE3=04 - She Caught The Katy And Left A Mule To Ride
TTITLE4=05 - For The Love Of A Woman
TTITLE5=06 - Lovejoy, ILL.
TTITLE6=07 - Everybody Wants To Go To Heaven
TTITLE7=08 - Going Back To Iuka
TTITLE8=08 - I've Made Nights By Myself (alt take)
TTITLE9=09 - Like A Road Leading Home
EXTD=
EXTT0=
EXTT1=
EXTT2=
EXTT3=
EXTT4=
EXTT5=
EXTT6=
EXTT7=
EXTT8=
EXTT9=
PLAYORDER=
